<?xml version="1.0" encoding="UTF-8"?>
<svg version="1.0" viewBox="0 0 1052.4 744.09" xmlns="http://www.w3.org/2000/svg" xmlns:cc="http://creativecommons.org/ns#" xmlns:dc="http://purl.org/dc/elements/1.1/" xmlns:rdf="http://www.w3.org/1999/02/22-rdf-syntax-ns#">
<metadata>
<rdf:RDF>
<cc:Work rdf:about="">
<dc:format>image/svg+xml</dc:format>
<dc:type rdf:resource="http://purl.org/dc/dcmitype/StillImage"/>
<dc:title/>
</cc:Work>
</rdf:RDF>
</metadata>
<g transform="translate(-260.34 119.39)">
<path d="m512.98 72.495c-6.9215 0-12.393 5.6127-12.393 12.534v329.69c0 6.9216 5.4719 12.393 12.393 12.393h548.83c6.9216 0 12.534-5.4719 12.534-12.393v-329.69c0-6.9215-5.6128-12.534-12.534-12.534h-548.83z" fill="#c8c8c8" fill-rule="evenodd" stroke="#000" stroke-linecap="round" stroke-linejoin="round" stroke-width="4.5067"/>
<rect x="528.99" y="100.85" width="516.88" height="308.64" rx="12.494" ry="12.077" fill="#c8c8c8" fill-rule="evenodd"/>
<g transform="matrix(4.5067 0 0 4.5067 -929.58 -2168.1)" fill="#808080" fill-rule="evenodd" stroke="#000">
<path d="m292.18 488.33h33.15l-2.598-4.2714c-1.7033-2.8005-6.1312-4.8789-13.977-4.8789-7.8459 0-12.274 2.0784-13.977 4.8789l-2.598 4.2714z"/>
<path d="m292.18 495.52h33.15l-2.598-4.2714c-1.7033-2.8005-6.1312-4.8789-13.977-4.8789s-12.274 2.0784-13.977 4.8789l-2.598 4.2714z"/>
</g>
<path transform="matrix(4.538 0 0 4.538 -914.38 -2164.2)" d="m341.44 528.96c0 20.792-16.855 37.647-37.647 37.647-20.792 0-37.647-16.855-37.647-37.647s16.855-37.647 37.647-37.647c20.792 0 37.647 16.855 37.647 37.647z" fill="#c8c8c8" fill-rule="evenodd" stroke="#000" stroke-linecap="round" stroke-linejoin="round" stroke-width=".9931"/>
<path transform="matrix(2.8793 0 0 2.8793 -246.7 -1140.6)" d="m341.44 528.96c0 20.792-16.855 37.647-37.647 37.647-20.792 0-37.647-16.855-37.647-37.647s16.855-37.647 37.647-37.647c20.792 0 37.647 16.855 37.647 37.647z" fill="#c8c8c8" fill-rule="evenodd" stroke="#000" stroke-linecap="round" stroke-linejoin="round" stroke-width="1.5652"/>
<path transform="matrix(1.9404 0 0 1.9404 38.526 -644.01)" d="m341.44 528.96c0 20.792-16.855 37.647-37.647 37.647-20.792 0-37.647-16.855-37.647-37.647s16.855-37.647 37.647-37.647c20.792 0 37.647 16.855 37.647 37.647z" fill="#404040" fill-opacity=".51852" fill-rule="evenodd" stroke="#000" stroke-linecap="round" stroke-linejoin="round" stroke-width="2.3226"/>
<g transform="matrix(4.5067 0 0 4.5067 -277.2 -2168.1)" fill="#808080" fill-rule="evenodd" stroke="#000">
<path d="m292.18 488.33h33.15l-2.598-4.2714c-1.7033-2.8005-6.1312-4.8789-13.977-4.8789-7.8459 0-12.274 2.0784-13.977 4.8789l-2.598 4.2714z"/>
<path d="m292.18 495.52h33.15l-2.598-4.2714c-1.7033-2.8005-6.1312-4.8789-13.977-4.8789s-12.274 2.0784-13.977 4.8789l-2.598 4.2714z"/>
</g>
<path transform="matrix(-4.538 0 0 4.538 2489.1 -2164.2)" d="m341.44 528.96c0 20.792-16.855 37.647-37.647 37.647-20.792 0-37.647-16.855-37.647-37.647s16.855-37.647 37.647-37.647c20.792 0 37.647 16.855 37.647 37.647z" fill="#c8c8c8" fill-rule="evenodd" stroke="#000" stroke-linecap="round" stroke-linejoin="round" stroke-width=".9931"/>
<path d="m1075.5 110c-6.9215 0-12.534 5.6126-12.534 12.534v66.051h-66.192c-6.9216 0-12.393 5.6126-12.393 12.534v70.276c0 6.9215 5.4719 12.534 12.393 12.534h66.192v66.051c0 6.9216 5.6126 12.534 12.534 12.534h70.276c6.9215 0 12.393-5.6128 12.393-12.534v-66.051h66.192c6.9216 0 12.393-5.6127 12.393-12.534v-70.276c0-6.9216-5.4718-12.534-12.393-12.534h-66.192v-66.051c0-6.9216-5.4719-12.534-12.393-12.534h-70.276z" fill="#404040" fill-rule="evenodd"/>
<rect x="685.43" y="241.14" width="52.431" height="30.045" rx="7.0693" ry="7.0693" fill="#595959" fill-rule="evenodd" stroke="#000" stroke-linecap="round" stroke-linejoin="round" stroke-width="4.5067"/>
<path transform="matrix(6.2172 0 0 6.2172 -1543 -3223.5)" d="m380 545.83c0 3.1765-2.5751 5.7516-5.7516 5.7516s-5.7516-2.5751-5.7516-5.7516 2.5751-5.7516 5.7516-5.7516 5.7516 2.5751 5.7516 5.7516z" fill="#595959" fill-rule="evenodd" stroke="#000" stroke-linecap="round" stroke-linejoin="round"/>
<path transform="matrix(4.5067 0 0 4.5067 -932.5 -2144.7)" d="m461.57 510.66c0 4.5482-3.6871 8.2353-8.2353 8.2353-4.5482 0-8.2353-3.6871-8.2353-8.2353s3.6871-8.2353 8.2353-8.2353c4.5482 0 8.2353 3.6871 8.2353 8.2353z" fill="#c8c8c8" fill-rule="evenodd" stroke="#454545" stroke-linecap="round" stroke-linejoin="round"/>
<path transform="matrix(4.5067 0 0 4.5067 -932.5 -1985)" d="m461.57 510.66c0 4.5482-3.6871 8.2353-8.2353 8.2353-4.5482 0-8.2353-3.6871-8.2353-8.2353s3.6871-8.2353 8.2353-8.2353c4.5482 0 8.2353 3.6871 8.2353 8.2353z" fill="#c8c8c8" fill-rule="evenodd" stroke="#454545" stroke-linecap="round" stroke-linejoin="round"/>
<path transform="matrix(-4.5067 0 0 -4.5067 3233.4 2537.9)" d="m461.57 510.66c0 4.5482-3.6871 8.2353-8.2353 8.2353-4.5482 0-8.2353-3.6871-8.2353-8.2353s3.6871-8.2353 8.2353-8.2353c4.5482 0 8.2353 3.6871 8.2353 8.2353z" fill="#c8c8c8" fill-rule="evenodd" stroke="#454545" stroke-linecap="round" stroke-linejoin="round"/>
<path transform="matrix(-4.5067 0 0 -4.5067 3073.7 2537.9)" d="m461.57 510.66c0 4.5482-3.6871 8.2353-8.2353 8.2353-4.5482 0-8.2353-3.6871-8.2353-8.2353s3.6871-8.2353 8.2353-8.2353c4.5482 0 8.2353 3.6871 8.2353 8.2353z" fill="#c8c8c8" fill-rule="evenodd" stroke="#454545" stroke-linecap="round" stroke-linejoin="round"/>
<path d="m428.35 107.82c-6.9216 0-12.534 5.6126-12.534 12.534v66.051h-66.192c-6.9216 0-12.393 5.6126-12.393 12.534v70.276c0 6.9216 5.4719 12.534 12.393 12.534h66.192v66.051c0 6.9216 5.6126 12.534 12.534 12.534h70.276c6.9216 0 12.393-5.6128 12.393-12.534v-66.051h66.192c6.9216 0 12.393-5.6127 12.393-12.534v-70.276c0-6.9216-5.4718-12.534-12.393-12.534h-66.192v-66.051c0-6.9216-5.4719-12.534-12.393-12.534h-70.276z" fill="#404040" fill-rule="evenodd"/>
<path transform="matrix(2.8793 0 0 2.8793 69.061 -1140.6)" d="m341.44 528.96c0 20.792-16.855 37.647-37.647 37.647-20.792 0-37.647-16.855-37.647-37.647s16.855-37.647 37.647-37.647c20.792 0 37.647 16.855 37.647 37.647z" fill="#c8c8c8" fill-rule="evenodd" stroke="#000" stroke-linecap="round" stroke-linejoin="round" stroke-width="1.5652"/>
<path transform="matrix(1.9404 0 0 1.9404 354.29 -644.01)" d="m341.44 528.96c0 20.792-16.855 37.647-37.647 37.647-20.792 0-37.647-16.855-37.647-37.647s16.855-37.647 37.647-37.647c20.792 0 37.647 16.855 37.647 37.647z" fill="#404040" fill-opacity=".51765" fill-rule="evenodd" stroke="#000" stroke-linecap="round" stroke-linejoin="round" stroke-width="2.3226"/>
<g transform="matrix(4.5067 0 0 4.5067 -931.97 -2151.2)" fill="#c8c8c8" fill-rule="evenodd">
<path transform="matrix(0 -.28374 -.51741 0 575.79 583.64)" d="m279.97 514.41-12.665 7.3123v-14.625l12.665 7.3123z"/>
<path transform="matrix(0 .28374 -.51741 0 575.79 474.89)" d="m279.97 514.41-12.665 7.3123v-14.625l12.665 7.3123z"/>
<path transform="matrix(.28374 0 0 -.51741 255.25 795.43)" d="m279.97 514.41-12.665 7.3123v-14.625l12.665 7.3123z"/>
<path transform="matrix(-.28374 0 0 -.51741 364 795.43)" d="m279.97 514.41-12.665 7.3123v-14.625l12.665 7.3123z"/>
</g>
<rect x="829.04" y="241.14" width="52.431" height="30.045" rx="7.0693" ry="7.0693" fill="#595959" fill-rule="evenodd" stroke="#000" stroke-linecap="round" stroke-linejoin="round" stroke-width="4.5067"/>
<text transform="translate(260.34 473.69)" x="83.792152" y="-8.0832329" fill="#000000" font-family="Bitstream Vera Sans" font-size="40px" xml:space="preserve"><tspan x="83.792152" y="-8.0832329"/></text>
<text x="1111.8625" y="320.40445" fill="#ff8080" font-family="Arial" font-size="12px" font-weight="bold" text-align="center" text-anchor="middle" style="line-height:125%" xml:space="preserve"><tspan x="1111.8625" y="320.40445" fill="#ff8080" font-family="Arial" font-size="12px" font-weight="bold" text-align="center" text-anchor="middle" style="line-height:125%">buttons[0]</tspan></text>
<text x="1192.4147" y="239.1524" fill="#ff8080" font-family="Arial" font-size="12px" font-weight="bold" text-align="center" text-anchor="middle" style="line-height:125%" xml:space="preserve"><tspan x="1192.4147" y="239.1524" fill="#ff8080" font-family="Arial" font-size="12px" font-weight="bold" text-align="center" text-anchor="middle" style="line-height:125%">buttons[1]</tspan></text>
<text x="1030.1771" y="239.15237" fill="#ff8080" font-family="Arial" font-size="12px" font-weight="bold" text-align="center" text-anchor="middle" style="line-height:125%" xml:space="preserve"><tspan x="1030.1771" y="239.15237" fill="#ff8080" font-family="Arial" font-size="12px" font-weight="bold" text-align="center" text-anchor="middle" style="line-height:125%">buttons[2]</tspan></text>
<text x="1108.7959" y="159.82648" fill="#ff8080" font-family="Arial" font-size="12px" font-weight="bold" text-align="center" text-anchor="middle" style="line-height:125%" xml:space="preserve"><tspan x="1108.7959" y="159.82648" fill="#ff8080" font-family="Arial" font-size="12px" font-weight="bold" text-align="center" text-anchor="middle" style="line-height:125%">buttons[3]</tspan></text>
<text x="463.17349" y="50.317413" fill="#ff8080" font-family="Arial" font-size="12px" font-weight="bold" text-align="center" text-anchor="middle" style="line-height:125%" xml:space="preserve"><tspan x="463.17349" y="50.317413" fill="#ff8080" font-family="Arial" font-size="12px" font-weight="bold" text-align="center" text-anchor="middle" style="line-height:125%">buttons[4]</tspan></text>
<text x="1113.1735" y="50.317413" fill="#ff8080" font-family="Arial" font-size="12px" font-weight="bold" text-align="center" text-anchor="middle" style="line-height:125%" xml:space="preserve"><tspan x="1113.1735" y="50.317413" fill="#ff8080" font-family="Arial" font-size="12px" font-weight="bold" text-align="center" text-anchor="middle" style="line-height:125%">buttons[5]</tspan></text>
<text x="462.17349" y="13.317413" fill="#ff8080" font-family="Arial" font-size="12px" font-weight="bold" text-align="center" text-anchor="middle" style="line-height:125%" xml:space="preserve"><tspan x="462.17349" y="13.317413" fill="#ff8080" font-family="Arial" font-size="12px" font-weight="bold" text-align="center" text-anchor="middle" style="line-height:125%">buttons[6]</tspan></text>
<text x="1114.1735" y="11.317429" fill="#ff8080" font-family="Arial" font-size="12px" font-weight="bold" text-align="center" text-anchor="middle" style="line-height:125%" xml:space="preserve"><tspan x="1114.1735" y="11.317429" fill="#ff8080" font-family="Arial" font-size="12px" font-weight="bold" text-align="center" text-anchor="middle" style="line-height:125%">buttons[7]</tspan></text>
<text x="714.17346" y="220.81744" fill="#ff8080" font-family="Arial" font-size="12px" font-weight="bold" text-align="center" text-anchor="middle" style="line-height:125%" xml:space="preserve"><tspan x="714.17346" y="220.81744" text-align="center" style="line-height:125%">buttons[8]</tspan><tspan x="714.17346" y="235.81744" text-align="center" style="line-height:125%">(select/back)</tspan></text>
<text x="853.17346" y="220.81741" fill="#ff8080" font-family="Arial" font-size="12px" font-weight="bold" text-align="center" text-anchor="middle" style="line-height:125%" xml:space="preserve"><tspan x="853.17346" y="220.81741" text-align="center" style="line-height:125%">buttons[9]</tspan><tspan x="853.17346" y="235.81741" text-align="center" style="line-height:125%">(start/forward)</tspan></text>
<text x="531.1344" y="371.53189" fill="#8080ff" font-family="Arial" font-size="12px" font-weight="bold" text-align="center" text-anchor="middle" style="line-height:125%" xml:space="preserve"><tspan x="531.1344" y="371.53189" text-align="center" style="line-height:125%">axes[0]</tspan><tspan x="531.1344" y="386.53189" text-align="center" style="line-height:125%">(negative left</tspan><tspan x="531.1344" y="401.53189" text-align="center" style="line-height:125%">positive right)</tspan><tspan x="531.1344" y="416.53189" text-align="center" style="line-height:125%"/></text>
<text x="945.31018" y="378.82523" fill="#ff8080" font-family="Droid Sans" font-size="12px" font-weight="bold" text-align="center" text-anchor="middle" xml:space="preserve"><tspan x="945.31018" y="378.82523" text-align="center">buttons[11]</tspan><tspan x="945.31018" y="393.82523" text-align="center">(pressed)</tspan></text>
<text x="464.31021" y="162.82523" fill="#ff8080" font-family="Arial" font-size="12px" font-weight="bold" text-align="center" text-anchor="middle" style="line-height:125%" xml:space="preserve"><tspan x="464.31021" y="162.82523" fill="#ff8080" font-family="Arial" font-size="12px" font-weight="bold" text-align="center" text-anchor="middle" style="line-height:125%">buttons[12]</tspan></text>
<text x="463.81021" y="314.31741" fill="#ff8080" font-family="Arial" font-size="12px" font-weight="bold" text-align="center" text-anchor="middle" style="line-height:125%" xml:space="preserve"><tspan x="463.81021" y="314.31741" fill="#ff8080" font-family="Arial" font-size="12px" font-weight="bold" text-align="center" text-anchor="middle" style="line-height:125%">buttons[13]</tspan></text>
<text x="405.10986" y="237.80368" fill="#ff8080" font-family="Arial" font-size="12px" font-weight="bold" text-align="center" text-anchor="middle" style="line-height:125%" xml:space="preserve"><tspan x="405.10986" y="237.80368" fill="#ff8080" font-family="Arial" font-size="12px" font-weight="bold" text-align="center" text-anchor="middle" style="line-height:125%">buttons[14]</tspan></text>
<text x="525.31018" y="238.31744" fill="#ff8080" font-family="Arial" font-size="12px" font-weight="bold" text-align="center" text-anchor="middle" style="line-height:125%" xml:space="preserve"><tspan x="525.31018" y="238.31744" fill="#ff8080" font-family="Arial" font-size="12px" font-weight="bold" text-align="center" text-anchor="middle" style="line-height:125%">buttons[15]</tspan></text>
<text x="783.34827" y="123.81741" fill="#ff8080" font-family="Arial" font-size="12px" font-weight="bold" text-align="center" text-anchor="middle" style="line-height:125%" xml:space="preserve"><tspan x="783.34827" y="123.81741" fill="#ff8080" font-family="Arial" font-size="12px" font-weight="bold" text-align="center" text-anchor="middle" style="line-height:125%">buttons[16]</tspan></text>
<text x="626.50098" y="377.56937" fill="#ff8080" font-family="Arial" font-size="12px" font-weight="bold" text-align="center" text-anchor="middle" style="line-height:125%" xml:space="preserve"><tspan x="626.50098" y="377.56937" text-align="center" style="line-height:125%">buttons[10]</tspan><tspan x="626.50098" y="392.56937" text-align="center" style="line-height:125%">(pressed)</tspan></text>
<text x="630.85779" y="467.93597" fill="#8080ff" font-family="Arial" font-size="12px" font-weight="bold" text-align="center" text-anchor="middle" style="line-height:125%" xml:space="preserve"><tspan x="630.85779" y="467.93597" text-align="center" style="line-height:125%">axes[1]</tspan><tspan x="630.85779" y="482.93597" text-align="center" style="line-height:125%">(negative up</tspan><tspan x="630.85779" y="497.93597" text-align="center" style="line-height:125%">positive down)</tspan><tspan x="630.85779" y="512.93597" text-align="center" style="line-height:125%"/></text>
<text x="1027.6294" y="373.63953" fill="#8080ff" font-family="Arial" font-size="12px" font-weight="bold" text-align="center" text-anchor="middle" style="line-height:125%" xml:space="preserve"><tspan x="1027.6294" y="373.63953" text-align="center" style="line-height:125%">axes[2]</tspan><tspan x="1027.6294" y="388.63953" text-align="center" style="line-height:125%">(negative left</tspan><tspan x="1027.6294" y="403.63953" text-align="center" style="line-height:125%">positive right)</tspan><tspan x="1027.6294" y="418.63953" text-align="center" style="line-height:125%"/></text>
<text x="947.96899" y="467.45441" fill="#8080ff" font-family="Arial" font-size="12px" font-weight="bold" text-align="center" text-anchor="middle" style="line-height:125%" xml:space="preserve"><tspan x="947.96899" y="467.45441" text-align="center" style="line-height:125%">axes[3]</tspan><tspan x="947.96899" y="482.45441" text-align="center" style="line-height:125%">(negative up</tspan><tspan x="947.96899" y="497.45441" text-align="center" style="line-height:125%">positive down)</tspan><tspan x="947.96899" y="512.45441" text-align="center" style="line-height:125%"/></text>
<text x="784.34241" y="31.708038" fill="#000000" font-family="Arial" font-size="32px" font-weight="bold" text-align="center" text-anchor="middle" style="line-height:125%" xml:space="preserve"><tspan x="784.34241" y="31.708038">STANDARD GAMEPAD</tspan></text>
</g>
</svg>
